<svg xmlns="http://www.w3.org/2000/svg" width="1280" height="720" viewBox="0 0 1280 720" role="img" aria-label="Incident response ticketing board showing containment as first active action">
  <rect width="1280" height="720" fill="#111827"/>
  <rect x="38" y="30" width="1204" height="660" rx="14" fill="#0f172a" stroke="#f97316"/>
  <text x="74" y="72" font-family="Segoe UI, Arial" font-size="28" fill="#fed7aa" font-weight="700">Incident Board - Gradebook Account Takeover</text>

  <rect x="74" y="108" width="270" height="542" rx="10" fill="#1f2937"/>
  <text x="98" y="146" font-family="Segoe UI, Arial" font-size="20" fill="#fecaca" font-weight="700">Detect</text>
  <rect x="94" y="168" width="230" height="140" rx="8" fill="#7f1d1d"/>
  <text x="110" y="220" font-family="Segoe UI, Arial" font-size="18" fill="#fee2e2">SIEM alert</text>

  <rect x="366" y="108" width="270" height="542" rx="10" fill="#1f2937" stroke="#f97316" stroke-width="2"/>
  <text x="390" y="146" font-family="Segoe UI, Arial" font-size="20" fill="#fed7aa" font-weight="700">Contain (Now)</text>
  <rect x="386" y="168" width="230" height="180" rx="8" fill="#9a3412"/>
  <text x="402" y="220" font-family="Segoe UI, Arial" font-size="18" fill="#ffedd5">Disable compromised</text>
  <text x="402" y="250" font-family="Segoe UI, Arial" font-size="18" fill="#ffedd5">accounts and isolate host</text>

  <rect x="658" y="108" width="270" height="542" rx="10" fill="#1f2937"/>
  <text x="682" y="146" font-family="Segoe UI, Arial" font-size="20" fill="#fde68a" font-weight="700">Eradicate</text>
  <rect x="678" y="168" width="230" height="140" rx="8" fill="#78350f"/>
  <text x="694" y="220" font-family="Segoe UI, Arial" font-size="18" fill="#fef3c7">Reset creds</text>

  <rect x="950" y="108" width="254" height="542" rx="10" fill="#1f2937"/>
  <text x="972" y="146" font-family="Segoe UI, Arial" font-size="20" fill="#bbf7d0" font-weight="700">Recover</text>
  <rect x="968" y="168" width="218" height="140" rx="8" fill="#14532d"/>
  <text x="984" y="220" font-family="Segoe UI, Arial" font-size="18" fill="#dcfce7">Restore service</text>
</svg>
